<svg width="110" height="110" viewBox="0 0 110 110" fill="none" xmlns="http://www.w3.org/2000/svg">
<g id="&#240;&#159;&#166;&#134; icon &#34;profile circle&#34;">
<g id="Group">
<path id="Vector" opacity="0.4" d="M55 110C85.3754 110 110 85.3759 110 55C110 24.6243 85.3754 0 55 0C24.6243 0 0 24.6243 0 55C0 85.3759 24.6243 110 55 110Z" fill="white"/>
<path id="Vector_2" d="M55.0001 27.1146C43.6151 27.1146 34.3751 36.3546 34.3751 47.7394C34.3751 58.9044 43.1201 67.9794 54.7251 68.3094H55.2201H55.6051H55.7151C66.8251 67.9244 75.5701 58.9044 75.6251 47.7394C75.6251 36.3546 66.3851 27.1146 55.0001 27.1146Z" fill="white"/>
<path id="Vector_3" d="M92.2938 95.4249C82.5038 104.445 69.4137 110 55.0037 110C40.5937 110 27.5037 104.445 17.7137 95.4249C19.0337 90.4199 22.6087 85.8549 27.8337 82.3349C42.8487 72.3249 67.2688 72.3249 82.1738 82.3349C87.4538 85.8549 90.9738 90.4199 92.2938 95.4249Z" fill="white"/>
</g>
</g>
</svg>
